<?xml version="1.0" encoding="UTF-8" standalone="no"?>

<svg
   version="1.1"
   viewBox="0 0 186.52 87.333336"
   xmlns="http://www.w3.org/2000/svg"
   xmlns:svg="http://www.w3.org/2000/svg">
  <defs
     id="defs6">
    <clipPath
       clipPathUnits="userSpaceOnUse"
       id="clipPath40">
      <path
         d="M 493.035,248.414 538.477,215.023 359.5,0 314.063,33.3867 Z"
         id="path38" />
    </clipPath>
    <linearGradient
       x1="0"
       y1="0"
       x2="1"
       y2="0"
       gradientUnits="userSpaceOnUse"
       gradientTransform="matrix(224.41,0,0,-224.41,314.064,124.207)"
       spreadMethod="pad"
       id="linearGradient48">
      <stop
         style="stop-opacity:1;stop-color:#77b9e8"
         offset="0"
         id="stop42" />
      <stop
         style="stop-opacity:1;stop-color:#327ac7"
         offset="0.567416"
         id="stop44" />
      <stop
         style="stop-opacity:1;stop-color:#2954ac"
         offset="1"
         id="stop46" />
    </linearGradient>
    <linearGradient
       x1="0"
       y1="0"
       x2="1"
       y2="0"
       gradientUnits="userSpaceOnUse"
       gradientTransform="matrix(480.826,0,0,480.826,404.823,-349.114)"
       spreadMethod="pad"
       id="linearGradient74">
      <stop
         style="stop-opacity:1;stop-color:#e2dcd7"
         offset="0"
         id="stop52" />
      <stop
         style="stop-opacity:1;stop-color:#e2dcd7"
         offset="0"
         id="stop54" />
      <stop
         style="stop-opacity:1;stop-color:#e2dcd7"
         offset="0"
         id="stop56" />
      <stop
         style="stop-opacity:1;stop-color:#e2dcd7"
         offset="0.04439189"
         id="stop58" />
      <stop
         style="stop-opacity:1;stop-color:#414547"
         offset="0.264045"
         id="stop60" />
      <stop
         style="stop-opacity:1;stop-color:#e5e4e4"
         offset="0.50547661"
         id="stop62" />
      <stop
         style="stop-opacity:1;stop-color:#e5e4e4"
         offset="0.573034"
         id="stop64" />
      <stop
         style="stop-opacity:1;stop-color:#e5e4e4"
         offset="0.64739366"
         id="stop66" />
      <stop
         style="stop-opacity:1;stop-color:#8b8e93"
         offset="0.876404"
         id="stop68" />
      <stop
         style="stop-opacity:1;stop-color:#d3d2d2"
         offset="1"
         id="stop70" />
      <stop
         style="stop-opacity:1;stop-color:#d3d2d2"
         offset="1"
         id="stop72" />
    </linearGradient>
  </defs>
  <g
     id="g8"
     transform="matrix(1.3333333,0,0,-1.3333333,0,87.333333)">
    <g
       id="g10"
       transform="scale(0.1)">
      <path
         d="m 5.04688,332.652 c 0.00781,0.215 10.44922,-18.199 29.10542,-23.039 11.504,-2.89 21.7461,4.617 21.7461,23.934 -0.1015,39.57 -51.89059,31.004 -51.78121,71.305 0,22.023 14.00781,37.875 30.03511,42.652 19.2461,5.617 28.0079,-9.332 28,-9.441 -1.582,-3.895 -3.1601,-7.735 -4.7382,-11.52 0.0039,0.09 -7.7969,13.086 -23.8282,9.117 C 22.8477,433.02 12.3516,423.59 12.3516,406.785 12.2461,373.27 64.1445,385.781 64.2461,332.461 64.2539,306.742 51.3047,292.715 33.9688,297.953 11.1719,304.922 0.0117188,325.891 0,325.617 c 1.67969,2.285 3.36328,4.629 5.04688,7.035"
         style="fill:#231f20;fill-opacity:1;fill-rule:nonzero;stroke:none"
         id="path12" />
      <path
         d="m 133.156,288.316 c 22.953,-5.253 41.657,31.829 41.653,85.446 0.007,52.332 -18.704,88.207 -41.653,83.039 -22.961,-5.235 -41.2927,-41.446 -41.2966,-83.149 0.0039,-42.722 18.3356,-80.011 41.2966,-85.336 z m 0,184.118 c 27.582,7.375 50.227,-35.871 50.219,-98.661 0.008,-64.093 -22.641,-108.57 -50.219,-101.089 -27.593,7.597 -49.6951,52.293 -49.699,100.957 0.0039,47.679 22.109,91.3 49.699,98.793"
         style="fill:#231f20;fill-opacity:1;fill-rule:nonzero;stroke:none"
         id="path14" />
      <path
         d="m 209.125,483.129 c 2.742,0.508 5.484,1.008 8.23,1.508 0,-45.172 0,-90.344 0,-135.516 0.012,-38.941 2.129,-75.953 24.157,-79.644 24.605,-4.414 40.484,47.738 40.476,105.875 0,40.046 0,80.097 0,120.144 2.774,0.43 5.547,0.856 8.321,1.277 0,-82.929 0,-165.855 0,-248.781 -2.774,0.426 -5.547,0.856 -8.321,1.289 0,14.449 0,28.899 0,43.348 0,11.312 0.793,20.113 0.793,20.117 -0.136,0.008 -0.269,0.02 -0.402,0.031 -3.359,-23.175 -17.043,-67.195 -40.867,-62.406 -24.192,4.781 -32.375,36.539 -32.387,92.438 0,46.773 0,93.546 0,140.32"
         style="fill:#231f20;fill-opacity:1;fill-rule:nonzero;stroke:none"
         id="path16" />
      <path
         d="m 322.078,290.805 c 0,0.121 11.145,-33.711 30.926,-36.196 12.195,-1.476 23.027,14.786 23.027,48.618 -0.051,69.3 -55,51.054 -54.945,134.609 0,45.633 14.926,71.617 31.918,74.059 20.402,2.863 29.641,-25.735 29.637,-25.778 -1.672,-6.363 -3.34,-12.699 -5.008,-19.012 0,0.04 -8.231,24.899 -25.219,22.875 -11.394,-1.347 -22.562,-16.257 -22.562,-49.98 -0.051,-67.348 54.953,-45.937 55.003,-137.305 0,-44.047 -13.66,-72.578 -32.046,-69.906 -24.184,3.578 -36.102,42.238 -36.106,42.078 1.793,5.281 3.582,10.594 5.375,15.938"
         style="fill:#231f20;fill-opacity:1;fill-rule:nonzero;stroke:none"
         id="path18" />
      <path
         d="m 575.695,593.625 c 8.543,0.551 17.09,1.047 25.641,1.48 0,-88.054 0,-176.113 0,-264.171 -0.004,-27.793 3.871,-34.84 10.594,-34.95 2.035,-0.035 3.863,0.446 3.863,0.45 0,-18.43 0,-36.86 0,-55.289 0,0 -3.863,-1.415 -8.148,-1.29 -14.25,0.411 -31.954,10.055 -31.95,81.989 0,90.594 0,181.187 0,271.781"
         style="fill:#3871c1;fill-opacity:1;fill-rule:nonzero;stroke:none"
         id="path20" />
      <path
         d="m 667.957,284.852 c 13.664,-0.098 23.449,36.07 23.449,67.207 0,2.007 0,4.015 0,6.027 -1.5,0 -2.996,0 -4.492,0 -13.25,0.004 -34.656,-4.512 -34.656,-40.055 0,-17.008 5.09,-33.101 15.699,-33.179 z m 19.781,116.914 c 1.157,0 2.313,0 3.465,0 0,1.172 0,2.343 0,3.515 0,33.649 -8.566,45.188 -19.98,45.125 -14.887,-0.09 -28.547,-24.734 -28.547,-24.722 -3.258,15.148 -6.52,30.273 -9.778,45.375 0,-0.032 16.09,31.828 40.766,32.058 27.324,0.199 43.231,-37.133 43.231,-101.871 0,-53.379 0,-106.758 0,-160.133 -7.954,-0.043 -15.907,-0.058 -23.864,-0.043 0,7.028 0,14.059 0,21.086 0,10.055 0.41,18.082 0.414,18.082 -0.136,0 -0.273,0 -0.414,0 0.211,0.02 -7.945,-45.258 -31.601,-44.98 -18.555,0.25 -35.262,29.14 -35.258,79.992 -0.008,80.762 44.633,86.527 61.566,86.516"
         style="fill:#3871c1;fill-opacity:1;fill-rule:nonzero;stroke:none"
         id="path22" />
      <path
         d="m 914.113,638.066 c 4.586,-0.644 9.168,-1.308 13.754,-1.996 0,-110.457 0,-220.914 0,-331.371 0,-38.445 6.067,-43.859 11.321,-43.492 1.816,0.121 3.433,0.801 3.433,0.801 0,-11.742 0,-23.488 0,-35.231 -0.004,0 -2.426,-1.379 -5.055,-1.613 -8.48,-0.789 -23.453,5.559 -23.453,70.215 0,114.23 0,228.461 0,342.687"
         style="fill:#3871c1;fill-opacity:1;fill-rule:nonzero;stroke:none"
         id="path24" />
      <path
         d="m 1011.06,261.852 c 21.67,2.402 39.25,50.996 39.25,112.605 0,60.035 -17.58,107.031 -39.25,109.41 -21.673,2.324 -39.412,-44.449 -39.412,-109.32 0,-66.582 17.739,-115.039 39.412,-112.695 z m 0,256.082 c 29.51,-4.246 53.22,-66.336 53.22,-143.496 0,-78.708 -23.72,-141.864 -53.22,-146.122 -29.494,-4.136 -53.529,58.782 -53.525,146.243 -0.004,85.742 24.031,147.504 53.525,143.375"
         style="fill:#3871c1;fill-opacity:1;fill-rule:nonzero;stroke:none"
         id="path26" />
      <path
         d="m 1088.15,501.313 c 4.51,-0.653 9.01,-1.321 13.51,-1.997 0,-50.503 0,-101.007 0,-151.511 0,-39.68 2.4,-74.703 21.61,-72.114 22.75,3.442 36.69,52.223 36.69,102.309 0,37.281 0,74.563 0,111.844 4.46,-0.778 8.92,-1.567 13.36,-2.367 0,-76.235 0,-152.465 0,-228.7 -4.31,-0.777 -8.63,-1.543 -12.96,-2.297 0,11.594 0,23.192 0,34.786 0,10.207 0.39,18.605 0.39,18.601 -0.13,-0.012 -0.26,-0.023 -0.39,-0.039 -3.94,-22.824 -16.91,-61.676 -38.88,-65.707 -23.36,-4.141 -33.34,27.094 -33.33,94.094 0,54.367 0,108.734 0,163.098"
         style="fill:#3871c1;fill-opacity:1;fill-rule:nonzero;stroke:none"
         id="path28" />
      <path
         d="m 1249.34,292.68 c 17.23,3.445 31.26,33.746 31.26,80.269 0,44.739 -12.49,76.145 -30.68,79.742 -16.26,3.153 -31.64,-19.48 -31.64,-80.179 -0.01,-42.903 10.93,-83.852 31.06,-79.832 z m -43.94,188.8 c 4.24,-0.82 8.46,-1.648 12.68,-2.488 0,-6.879 0,-13.754 0,-20.629 0,-9.258 -0.39,-16.347 -0.39,-16.351 0.13,-0.016 0.26,-0.032 0.39,-0.051 -0.01,0.133 8.03,41.047 33.77,34.773 26.12,-6.793 42.18,-49.218 42.19,-103.777 -0.01,-55.535 -18.19,-97.137 -43.34,-103.695 -23.43,-5.715 -32.04,33.297 -32.03,33.441 -0.13,-0.015 -0.26,-0.031 -0.39,-0.051 0,0 0.39,-7.515 0.39,-18.449 0,-33.637 0,-67.273 0,-100.91 -4.42,-1.582 -8.84,-3.141 -13.27,-4.68 0,100.957 0,201.91 0,302.867"
         style="fill:#3871c1;fill-opacity:1;fill-rule:nonzero;stroke:none"
         id="path30" />
      <path
         d="m 1386,386.91 c -0.75,27.192 -12.74,43.039 -26.9,46.41 -15.85,3.746 -29.75,-10.105 -32.79,-43.136 20.05,-1.039 39.95,-2.129 59.69,-3.274 z m -26.52,62.914 c 26.23,-8.308 39.42,-38.707 39.44,-68.875 0,-2.972 -0.38,-8.679 -0.38,-8.679 -24.03,-0.098 -48.31,-0.188 -72.8,-0.27 0.57,-42.684 17.34,-61.906 36.95,-57.117 17.35,4.133 28.74,22.183 28.75,21.961 1.93,-4.141 3.86,-8.168 5.79,-12.082 -0.01,0.312 -13.6,-21.016 -34.92,-27.543 -28.29,-9.11 -49.93,22.074 -49.92,75.746 0,57.039 21.42,85.058 47.09,76.859"
         style="fill:#3871c1;fill-opacity:1;fill-rule:nonzero;stroke:none"
         id="path32" />
      <g
         id="g34">
        <g
           id="g36"
           clip-path="url(#clipPath40)">
          <path
             d="M 493.035,248.414 538.477,215.023 359.5,0 314.063,33.3867 493.035,248.414"
             style="fill:url(#linearGradient48);fill-opacity:1;fill-rule:nonzero;stroke:none"
             id="path50" />
        </g>
      </g>
      <path
         d="M 626.008,190.035 C 501.977,200.652 410.039,309.809 420.656,433.84 431.277,557.871 540.434,649.813 664.465,639.191 788.496,628.574 880.434,519.418 869.816,395.387 859.195,271.355 750.039,179.414 626.008,190.035 Z"
         style="fill:none;stroke:url(#linearGradient74);stroke-width:30;stroke-linecap:butt;stroke-linejoin:miter;stroke-miterlimit:10;stroke-dasharray:none;stroke-opacity:1"
         id="path76" />
    </g>
  </g>
</svg>
